<mxfile host="app.diagrams.net" modified="2024-03-05T23:21:20.554Z" agent="Mozilla/5.0 (X11; Linux x86_64) AppleWebKit/537.36 (KHTML, like Gecko) Chrome/122.0.0.0 Safari/537.36" etag="zx0EV_TbrZNONsyfeQlw" version="24.0.1" type="google">
  <diagram name="Page-1" id="b5b7bab2-c9e2-2cf4-8b2a-24fd1a2a6d21">
    <mxGraphModel grid="1" page="1" gridSize="10" guides="1" tooltips="1" connect="1" arrows="1" fold="1" pageScale="1" pageWidth="827" pageHeight="1169" background="none" math="0" shadow="0">
      <root>
        <mxCell id="0" />
        <mxCell id="1" parent="0" />
        <mxCell id="6e0c8c40b5770093-72" value="m" style="shape=folder;fontStyle=1;spacingTop=10;tabWidth=194;tabHeight=22;tabPosition=left;html=1;rounded=0;shadow=0;comic=0;labelBackgroundColor=none;strokeWidth=1;fillColor=none;fontFamily=Verdana;fontSize=10;align=center;movable=1;resizable=1;rotatable=1;deletable=1;editable=1;locked=0;connectable=1;" vertex="1" parent="1">
          <mxGeometry x="40" y="30" width="930" height="520" as="geometry" />
        </mxCell>
        <mxCell id="RYs3ycKHNkttlXrmDFau-4" value="&lt;div&gt;&amp;lt;&amp;lt;cloud&amp;gt;&amp;gt;&lt;/div&gt;AWS" style="verticalAlign=top;align=left;spacingTop=8;spacingLeft=2;spacingRight=12;shape=cube;size=10;direction=south;fontStyle=4;html=1;whiteSpace=wrap;fillColor=#ffe6cc;strokeColor=#d79b00;" vertex="1" parent="1">
          <mxGeometry x="400" y="70" width="550" height="460" as="geometry" />
        </mxCell>
        <mxCell id="RYs3ycKHNkttlXrmDFau-37" style="edgeStyle=orthogonalEdgeStyle;rounded=0;orthogonalLoop=1;jettySize=auto;html=1;exitX=0;exitY=0;exitDx=310;exitDy=125;exitPerimeter=0;" edge="1" parent="1" source="RYs3ycKHNkttlXrmDFau-31" target="RYs3ycKHNkttlXrmDFau-33">
          <mxGeometry relative="1" as="geometry" />
        </mxCell>
        <mxCell id="RYs3ycKHNkttlXrmDFau-31" value="&lt;div&gt;&amp;lt;&amp;lt;ui&amp;gt;&amp;gt;&lt;/div&gt;Dashboard" style="verticalAlign=top;align=left;spacingTop=8;spacingLeft=2;spacingRight=12;shape=cube;size=10;direction=south;fontStyle=4;html=1;whiteSpace=wrap;fillColor=#fad9d5;strokeColor=#ae4132;" vertex="1" parent="1">
          <mxGeometry x="690" y="90" width="240" height="310" as="geometry" />
        </mxCell>
        <mxCell id="RYs3ycKHNkttlXrmDFau-30" value="Banco de Dados" style="verticalAlign=top;align=left;spacingTop=8;spacingLeft=2;spacingRight=12;shape=cube;size=10;direction=south;fontStyle=4;html=1;whiteSpace=wrap;" vertex="1" parent="1">
          <mxGeometry x="458" y="250" width="180" height="120" as="geometry" />
        </mxCell>
        <mxCell id="RYs3ycKHNkttlXrmDFau-24" value="&lt;div&gt;&amp;lt;&amp;lt;serviço&amp;gt;&amp;gt;&lt;/div&gt;EKS" style="shape=module;align=left;spacingLeft=20;align=center;verticalAlign=top;whiteSpace=wrap;html=1;fillColor=#fff2cc;strokeColor=#d6b656;" vertex="1" parent="1">
          <mxGeometry x="710" y="140" width="190" height="110" as="geometry" />
        </mxCell>
        <mxCell id="RYs3ycKHNkttlXrmDFau-21" value="package" style="shape=folder;fontStyle=1;spacingTop=10;tabWidth=40;tabHeight=14;tabPosition=left;html=1;whiteSpace=wrap;fillColor=#d5e8d4;strokeColor=#82b366;" vertex="1" parent="1">
          <mxGeometry x="75" y="230" width="230" height="110" as="geometry" />
        </mxCell>
        <mxCell id="RYs3ycKHNkttlXrmDFau-1" value="&amp;lt;&amp;lt;device&amp;gt;&amp;gt;&lt;div&gt;Publisher&lt;/div&gt;" style="verticalAlign=top;align=left;spacingTop=8;spacingLeft=2;spacingRight=12;shape=cube;size=10;direction=south;fontStyle=4;html=1;whiteSpace=wrap;fillColor=#6d8764;fontColor=#ffffff;strokeColor=#3A5431;" vertex="1" parent="1">
          <mxGeometry x="60" y="90" width="280" height="130" as="geometry" />
        </mxCell>
        <mxCell id="6e0c8c40b5770093-73" value="Arquitetura" style="text;html=1;align=left;verticalAlign=top;spacingTop=-4;fontSize=10;fontFamily=Verdana" vertex="1" parent="1">
          <mxGeometry x="46" y="32" width="130" height="20" as="geometry" />
        </mxCell>
        <mxCell id="UbzwORFnAPY4YQ5WH7bw-9" value="" style="endArrow=none;html=1;rounded=0;exitX=0;exitY=0.5;exitDx=10;exitDy=0;entryX=1;entryY=0.5;entryDx=0;entryDy=0;exitPerimeter=0;" edge="1" parent="1" source="RYs3ycKHNkttlXrmDFau-5" target="RYs3ycKHNkttlXrmDFau-14">
          <mxGeometry width="50" height="50" relative="1" as="geometry">
            <mxPoint x="190.95000000000005" y="591.8119999999999" as="sourcePoint" />
            <mxPoint x="190.12999999999988" y="378.8299999999999" as="targetPoint" />
            <Array as="points">
              <mxPoint x="360" y="175" />
              <mxPoint x="360" y="292" />
            </Array>
          </mxGeometry>
        </mxCell>
        <mxCell id="RYs3ycKHNkttlXrmDFau-20" value="&amp;lt;&amp;lt;MQTT&amp;gt;&amp;gt;" style="edgeLabel;html=1;align=center;verticalAlign=middle;resizable=0;points=[];" connectable="0" vertex="1" parent="UbzwORFnAPY4YQ5WH7bw-9">
          <mxGeometry x="0.3767" y="-2" relative="1" as="geometry">
            <mxPoint x="2" y="-36" as="offset" />
          </mxGeometry>
        </mxCell>
        <mxCell id="RYs3ycKHNkttlXrmDFau-2" value="&lt;div&gt;&amp;lt;&amp;lt;sensor&amp;gt;&amp;gt;&lt;/div&gt;Air" style="html=1;whiteSpace=wrap;" vertex="1" parent="1">
          <mxGeometry x="80" y="142" width="110" height="50" as="geometry" />
        </mxCell>
        <mxCell id="RYs3ycKHNkttlXrmDFau-3" value="&lt;div&gt;&amp;lt;&amp;lt;sensor&amp;gt;&amp;gt;&lt;/div&gt;Temperature" style="html=1;whiteSpace=wrap;" vertex="1" parent="1">
          <mxGeometry x="200" y="142" width="110" height="50" as="geometry" />
        </mxCell>
        <mxCell id="RYs3ycKHNkttlXrmDFau-5" value="&amp;lt;&amp;lt;serviço&amp;gt;&amp;gt;&lt;div&gt;IoT Core&lt;/div&gt;" style="shape=module;align=left;spacingLeft=20;align=center;verticalAlign=top;whiteSpace=wrap;html=1;fillColor=#d5e8d4;strokeColor=#82b366;" vertex="1" parent="1">
          <mxGeometry x="410" y="120" width="260" height="110" as="geometry" />
        </mxCell>
        <mxCell id="RYs3ycKHNkttlXrmDFau-7" value="&lt;div&gt;&lt;div&gt;&amp;lt;&amp;lt;serviço&amp;gt;&amp;gt;&lt;/div&gt;&lt;/div&gt;DynamoDB" style="shape=module;align=left;spacingLeft=20;align=center;verticalAlign=middle;whiteSpace=wrap;html=1;fillColor=#dae8fc;strokeColor=#6c8ebf;" vertex="1" parent="1">
          <mxGeometry x="473.12" y="290" width="149.75" height="50" as="geometry" />
        </mxCell>
        <mxCell id="RYs3ycKHNkttlXrmDFau-9" style="edgeStyle=orthogonalEdgeStyle;rounded=0;orthogonalLoop=1;jettySize=auto;html=1;exitX=1;exitY=0.5;exitDx=0;exitDy=0;entryX=0;entryY=0;entryDx=0;entryDy=35;entryPerimeter=0;" edge="1" parent="1" source="RYs3ycKHNkttlXrmDFau-5" target="RYs3ycKHNkttlXrmDFau-7">
          <mxGeometry relative="1" as="geometry">
            <Array as="points">
              <mxPoint x="680" y="175" />
              <mxPoint x="680" y="240" />
              <mxPoint x="448" y="240" />
              <mxPoint x="448" y="315" />
              <mxPoint x="460" y="315" />
            </Array>
          </mxGeometry>
        </mxCell>
        <mxCell id="RYs3ycKHNkttlXrmDFau-10" value="Rule" style="edgeLabel;html=1;align=center;verticalAlign=middle;resizable=0;points=[];" connectable="0" vertex="1" parent="RYs3ycKHNkttlXrmDFau-9">
          <mxGeometry x="-0.0881" y="-2" relative="1" as="geometry">
            <mxPoint x="1" y="-8" as="offset" />
          </mxGeometry>
        </mxCell>
        <mxCell id="RYs3ycKHNkttlXrmDFau-13" value="topic/region/+" style="html=1;whiteSpace=wrap;" vertex="1" parent="1">
          <mxGeometry x="486" y="160" width="110" height="50" as="geometry" />
        </mxCell>
        <mxCell id="RYs3ycKHNkttlXrmDFau-14" value="&lt;p style=&quot;margin:0px;margin-top:6px;text-align:center;&quot;&gt;&lt;b&gt;Autenticação&lt;/b&gt;&lt;/p&gt;&lt;hr size=&quot;1&quot; style=&quot;border-style:solid;&quot;&gt;&lt;p style=&quot;margin:0px;margin-left:8px;&quot;&gt;+ certificado: SHA-256&lt;br&gt;+ chave-pública: SHA-256&lt;/p&gt;&lt;p style=&quot;margin:0px;margin-left:8px;&quot;&gt;+ chave-privada: SHA-256&lt;/p&gt;" style="align=left;overflow=fill;html=1;dropTarget=0;whiteSpace=wrap;" vertex="1" parent="1">
          <mxGeometry x="96" y="252" width="190" height="80" as="geometry" />
        </mxCell>
        <mxCell id="RYs3ycKHNkttlXrmDFau-15" value="" style="shape=component;jettyWidth=8;jettyHeight=4;" vertex="1" parent="RYs3ycKHNkttlXrmDFau-14">
          <mxGeometry x="1" width="20" height="20" relative="1" as="geometry">
            <mxPoint x="-24" y="4" as="offset" />
          </mxGeometry>
        </mxCell>
        <mxCell id="RYs3ycKHNkttlXrmDFau-18" value="" style="endArrow=none;html=1;rounded=0;exitX=0;exitY=0;exitDx=0;exitDy=130;exitPerimeter=0;" edge="1" parent="1">
          <mxGeometry width="50" height="50" relative="1" as="geometry">
            <mxPoint x="190" y="250" as="sourcePoint" />
            <mxPoint x="190" y="220" as="targetPoint" />
          </mxGeometry>
        </mxCell>
        <mxCell id="RYs3ycKHNkttlXrmDFau-23" value="Grafana + Prometheus" style="verticalAlign=middle;align=center;spacingTop=8;spacingLeft=2;spacingRight=12;shape=cube;size=10;direction=south;fontStyle=4;html=1;whiteSpace=wrap;fillColor=#f8cecc;strokeColor=#b85450;" vertex="1" parent="1">
          <mxGeometry x="737" y="176" width="150" height="60" as="geometry" />
        </mxCell>
        <mxCell id="RYs3ycKHNkttlXrmDFau-25" value="&lt;div&gt;&amp;lt;&amp;lt;serviço&amp;gt;&amp;gt;&lt;/div&gt;EC2" style="shape=module;align=left;spacingLeft=20;align=center;verticalAlign=top;whiteSpace=wrap;html=1;fillColor=#fff2cc;strokeColor=#d6b656;" vertex="1" parent="1">
          <mxGeometry x="710" y="280" width="190" height="110" as="geometry" />
        </mxCell>
        <mxCell id="RYs3ycKHNkttlXrmDFau-26" value="T3.Medium" style="html=1;whiteSpace=wrap;" vertex="1" parent="1">
          <mxGeometry x="757" y="319" width="110" height="50" as="geometry" />
        </mxCell>
        <mxCell id="RYs3ycKHNkttlXrmDFau-27" value="Acoplado" style="endArrow=block;endFill=1;html=1;edgeStyle=orthogonalEdgeStyle;align=left;verticalAlign=top;rounded=0;exitX=0.5;exitY=1;exitDx=0;exitDy=0;entryX=0.5;entryY=0;entryDx=0;entryDy=0;" edge="1" parent="1" source="RYs3ycKHNkttlXrmDFau-24" target="RYs3ycKHNkttlXrmDFau-25">
          <mxGeometry x="-1" relative="1" as="geometry">
            <mxPoint x="570" y="300" as="sourcePoint" />
            <mxPoint x="730" y="300" as="targetPoint" />
          </mxGeometry>
        </mxCell>
        <mxCell id="RYs3ycKHNkttlXrmDFau-28" value="1" style="edgeLabel;resizable=0;html=1;align=left;verticalAlign=bottom;" connectable="0" vertex="1" parent="RYs3ycKHNkttlXrmDFau-27">
          <mxGeometry x="-1" relative="1" as="geometry" />
        </mxCell>
        <mxCell id="RYs3ycKHNkttlXrmDFau-32" value="&lt;div&gt;&lt;div style=&quot;&quot;&gt;&amp;lt;&amp;lt;serviço&amp;gt;&amp;gt;&lt;/div&gt;&lt;span style=&quot;color: rgb(0, 0, 0);&quot;&gt;&lt;/span&gt;&lt;/div&gt;AWS Glue" style="shape=module;align=left;spacingLeft=20;align=center;verticalAlign=top;whiteSpace=wrap;html=1;fillColor=#76608a;strokeColor=#432D57;fontColor=#ffffff;" vertex="1" parent="1">
          <mxGeometry x="414.99" y="400" width="245.01" height="100" as="geometry" />
        </mxCell>
        <mxCell id="RYs3ycKHNkttlXrmDFau-38" style="edgeStyle=orthogonalEdgeStyle;rounded=0;orthogonalLoop=1;jettySize=auto;html=1;exitX=0;exitY=0;exitDx=0;exitDy=15;exitPerimeter=0;entryX=1;entryY=0.5;entryDx=0;entryDy=0;" edge="1" parent="1" source="RYs3ycKHNkttlXrmDFau-33" target="RYs3ycKHNkttlXrmDFau-34">
          <mxGeometry relative="1" as="geometry" />
        </mxCell>
        <mxCell id="RYs3ycKHNkttlXrmDFau-33" value="&lt;div&gt;&lt;div&gt;&amp;lt;&amp;lt;serviço&amp;gt;&amp;gt;&lt;/div&gt;&lt;/div&gt;Amazon Athena" style="shape=module;align=left;spacingLeft=20;align=center;verticalAlign=middle;whiteSpace=wrap;html=1;fillColor=#e1d5e7;strokeColor=#9673a6;" vertex="1" parent="1">
          <mxGeometry x="715" y="420" width="180" height="60" as="geometry" />
        </mxCell>
        <mxCell id="RYs3ycKHNkttlXrmDFau-34" value="Tables" style="html=1;whiteSpace=wrap;" vertex="1" parent="1">
          <mxGeometry x="555" y="442" width="83" height="40" as="geometry" />
        </mxCell>
        <mxCell id="RYs3ycKHNkttlXrmDFau-39" style="edgeStyle=orthogonalEdgeStyle;rounded=0;orthogonalLoop=1;jettySize=auto;html=1;exitX=1;exitY=0.5;exitDx=0;exitDy=0;entryX=0;entryY=0.5;entryDx=0;entryDy=0;" edge="1" parent="1" source="RYs3ycKHNkttlXrmDFau-35" target="RYs3ycKHNkttlXrmDFau-34">
          <mxGeometry relative="1" as="geometry" />
        </mxCell>
        <mxCell id="RYs3ycKHNkttlXrmDFau-40" style="edgeStyle=orthogonalEdgeStyle;rounded=0;orthogonalLoop=1;jettySize=auto;html=1;exitX=0;exitY=0.5;exitDx=0;exitDy=0;entryX=0.5;entryY=1;entryDx=0;entryDy=0;" edge="1" parent="1" source="RYs3ycKHNkttlXrmDFau-35" target="RYs3ycKHNkttlXrmDFau-7">
          <mxGeometry relative="1" as="geometry">
            <Array as="points">
              <mxPoint x="458" y="430" />
              <mxPoint x="440" y="430" />
              <mxPoint x="440" y="380" />
              <mxPoint x="548" y="380" />
            </Array>
          </mxGeometry>
        </mxCell>
        <mxCell id="RYs3ycKHNkttlXrmDFau-35" value="Crawler" style="html=1;whiteSpace=wrap;" vertex="1" parent="1">
          <mxGeometry x="458" y="442" width="83" height="40" as="geometry" />
        </mxCell>
      </root>
    </mxGraphModel>
  </diagram>
</mxfile>
